<svg width="340" height="280" xmlns="http://www.w3.org/2000/svg">
 <!-- Created with Method Draw - http://github.com/duopixel/Method-Draw/ -->

 <g>
  <title>background</title>
  <rect fill="none" id="canvas_background" height="282" width="342" y="-1" x="-1"/>
 </g>
 <g>
  <title>Layer 1</title>
  <g transform="matrix(5.14910389163965,0,0,5.14910389163965,107.65792449354961,270.223013691337) " stroke="null" id="svg_6">
   <path stroke="null" id="svg_7" fill="#4084a5" d="m24.52269,-36.907453c-0.017,-7.03 -5.742,-12.745 -12.776,-12.745c-7.045,0 -12.777,5.732 -12.777,12.777c0,0.022 0.004,0.043 0.004,0.065c-3.69,2.243 -6.167,6.29 -6.167,10.914c0,7.046 5.731,12.777 12.777,12.777c2.268,0 4.395,-0.601 6.244,-1.642c1.849,1.041 3.977,1.642 6.245,1.642c7.046,0 12.777,-5.732 12.777,-12.777c0,-4.691 -2.548,-8.789 -6.327,-11.011zm-12.695,19.461c-2.312,-1.713 -3.906,-4.341 -4.22,-7.352c1.3,0.448 2.689,0.702 4.139,0.702c1.514,0 2.96,-0.278 4.307,-0.764c-0.298,3.037 -1.898,5.689 -4.226,7.414zm-10.504,-18.063c1.303,-0.579 2.743,-0.909 4.26,-0.909c1.475,0 2.879,0.307 4.154,0.858c-2.114,1.826 -3.629,4.325 -4.195,7.167c-2.263,-1.662 -3.838,-4.2 -4.219,-7.116zm10.423,9.157c-1.457,0 -2.846,-0.298 -4.109,-0.837c0.361,-2.928 1.929,-5.482 4.19,-7.157c2.243,1.662 3.802,4.187 4.18,7.085c-1.304,0.581 -2.744,0.909 -4.261,0.909zm2.171,-9.209c1.275,-0.55 2.679,-0.858 4.154,-0.858c1.457,0 2.846,0.298 4.11,0.837c-0.356,2.885 -1.883,5.404 -4.089,7.082c-0.582,-2.799 -2.087,-5.257 -4.175,-7.061zm-2.171,-11.836c5.432,0 9.915,4.137 10.466,9.425c-1.3,-0.447 -2.689,-0.702 -4.14,-0.702c-2.268,0 -4.396,0.601 -6.245,1.642c-1.848,-1.041 -3.975,-1.642 -6.244,-1.642c-1.514,0 -2.96,0.278 -4.307,0.763c0.523,-5.317 5.018,-9.486 10.47,-9.486zm-6.163,32.024c-5.803,0 -10.523,-4.72 -10.523,-10.523c0,-3.418 1.645,-6.451 4.177,-8.375c0.744,3.581 2.999,6.607 6.059,8.408c0.011,3.847 1.735,7.293 4.442,9.631c-1.276,0.552 -2.679,0.859 -4.155,0.859zm12.489,0c-1.475,0 -2.879,-0.307 -4.154,-0.858c2.715,-2.345 4.444,-5.804 4.444,-9.664c0,-0.022 -0.004,-0.044 -0.004,-0.065c3.007,-1.829 5.209,-4.852 5.918,-8.416c2.613,1.917 4.319,4.999 4.319,8.48c-0.001,5.802 -4.721,10.523 -10.523,10.523z"/>
  </g>
  <g stroke="null" transform="matrix(5.14910389163965,0,0,5.14910389163965,107.65792449354961,270.223013691337) " id="svg_8"/>
  <g stroke="null" transform="matrix(5.14910389163965,0,0,5.14910389163965,107.65792449354961,270.223013691337) " id="svg_9"/>
  <g stroke="null" transform="matrix(5.14910389163965,0,0,5.14910389163965,107.65792449354961,270.223013691337) " id="svg_10"/>
  <g stroke="null" transform="matrix(5.14910389163965,0,0,5.14910389163965,107.65792449354961,270.223013691337) " id="svg_11"/>
  <g stroke="null" transform="matrix(5.14910389163965,0,0,5.14910389163965,107.65792449354961,270.223013691337) " id="svg_12"/>
  <g stroke="null" transform="matrix(5.14910389163965,0,0,5.14910389163965,107.65792449354961,270.223013691337) " id="svg_13"/>
  <g stroke="null" transform="matrix(5.14910389163965,0,0,5.14910389163965,107.65792449354961,270.223013691337) " id="svg_14"/>
  <g stroke="null" transform="matrix(5.14910389163965,0,0,5.14910389163965,107.65792449354961,270.223013691337) " id="svg_15"/>
  <g stroke="null" transform="matrix(5.14910389163965,0,0,5.14910389163965,107.65792449354961,270.223013691337) " id="svg_16"/>
  <g stroke="null" transform="matrix(5.14910389163965,0,0,5.14910389163965,107.65792449354961,270.223013691337) " id="svg_17"/>
  <g stroke="null" transform="matrix(5.14910389163965,0,0,5.14910389163965,107.65792449354961,270.223013691337) " id="svg_18"/>
  <g stroke="null" transform="matrix(5.14910389163965,0,0,5.14910389163965,107.65792449354961,270.223013691337) " id="svg_19"/>
  <g stroke="null" transform="matrix(5.14910389163965,0,0,5.14910389163965,107.65792449354961,270.223013691337) " id="svg_20"/>
  <g stroke="null" transform="matrix(5.14910389163965,0,0,5.14910389163965,107.65792449354961,270.223013691337) " id="svg_21"/>
  <g stroke="null" transform="matrix(5.14910389163965,0,0,5.14910389163965,107.65792449354961,270.223013691337) " id="svg_22"/>
  <text font-weight="bold" xml:space="preserve" text-anchor="start" font-family="'League Gothic', sans-serif" font-size="60" id="svg_24" y="254" x="21.5" stroke-width="0" stroke="#000" fill="#dd6c6c">Inexorable</text>
 </g>
</svg>